<?xml version="1.0" standalone="no"?>
<!DOCTYPE svg PUBLIC "-//W3C//DTD SVG 20010904//EN"
 "http://www.w3.org/TR/2001/REC-SVG-20010904/DTD/svg10.dtd">
<svg version="1.0" xmlns="http://www.w3.org/2000/svg"
 width="320.000000pt" height="320.000000pt" viewBox="0 0 320.000000 320.000000"
 preserveAspectRatio="xMidYMid meet">
<metadata>
Created by potrace 1.14, written by Peter Selinger 2001-2017
</metadata>
<g transform="translate(0.000000,320.000000) scale(0.100000,-0.100000)"
fill="#000000" stroke="none">
<path d="M2248 2805 c-2 -1 -35 -5 -74 -8 -180 -16 -353 -103 -497 -249 l-77
-79 -83 84 c-105 107 -231 187 -337 212 -109 27 -158 32 -265 30 -128 -3 -163
-8 -235 -32 -418 -140 -640 -581 -503 -1002 45 -140 105 -232 251 -386 42 -45
140 -148 217 -230 77 -81 156 -165 175 -185 81 -86 300 -318 331 -351 74 -79
308 -326 377 -398 l72 -76 72 75 c132 140 335 355 368 390 18 19 98 104 179
189 80 85 160 169 176 186 17 18 89 95 161 171 72 77 146 155 164 174 18 19
61 65 96 102 162 171 241 354 248 578 6 151 -57 349 -152 480 -47 65 -158 165
-229 208 -86 51 -225 99 -313 107 -36 4 -77 8 -92 10 -15 1 -29 1 -30 0z"/>
</g>
</svg>
